<svg width="26" height="39" viewBox="0 0 26 39" fill="none" xmlns="http://www.w3.org/2000/svg">
<path d="M25.9819 3.24297C25.9819 3.55523 25.8031 3.90688 25.5356 4.14149L7.99125 19.4928L25.5356 34.8441C25.8037 35.0788 25.9819 35.4298 25.9819 35.7427C25.9819 36.0555 25.8031 36.4066 25.5356 36.6412L23.3037 38.5941C23.0356 38.8287 22.6344 38.9845 22.2769 38.9845C21.9194 38.9845 21.5181 38.8281 21.25 38.5941L0.44625 20.3908C0.178125 20.1562 0 19.8051 0 19.4923C0 19.1795 0.17875 18.8284 0.44625 18.5938L21.25 0.390469C21.5181 0.15586 21.9194 0 22.2769 0C22.6344 0 23.0356 0.156407 23.3037 0.390469L25.5356 2.34336C25.8037 2.57797 25.9819 2.89024 25.9819 3.24188V3.24297Z" fill="#666666"/>
</svg>
