<svg width="29" height="39" viewBox="0 0 29 39" fill="none" xmlns="http://www.w3.org/2000/svg">
<path d="M29.003 19.4912C29.003 19.8034 28.8035 20.1551 28.5049 20.3897L5.28209 38.593C4.98279 38.8276 4.53488 38.9834 4.13581 38.9834C3.73674 38.9834 3.28884 38.827 2.98954 38.593L0.49814 36.6401C0.198837 36.4055 0 36.0932 0 35.7416C0 35.4293 0.199535 35.0777 0.49814 34.843L20.0826 19.4917L0.49814 4.14039C0.198837 3.90578 0 3.55469 0 3.24188C0 2.92906 0.199535 2.57797 0.49814 2.34336L2.98954 0.390469C3.28884 0.15586 3.73674 0 4.13581 0C4.53488 0 4.98279 0.156407 5.28209 0.390469L28.5049 18.5938C28.8042 18.8284 29.003 19.1795 29.003 19.4923V19.4912Z" fill="#666666"/>
</svg>
